<svg id="svg" version="1.1" xmlns="http://www.w3.org/2000/svg" viewBox="0 0 400 288" style="display: block;"><path d="M0 0 C132 0 264 0 400 0 C400 95.04 400 190.08 400 288 C268 288 136 288 0 288 C0 192.96 0 97.92 0 0 Z " transform="translate(0,0)" style="fill: #2B002F;"/><path d="M0 0 C11.69877211 8.11114866 19.85430187 20.57450191 23.625 34.3125 C26.01020481 49.34216404 23.67704569 62.92266546 16.33203125 76.21875 C14.84372434 78.94011571 14.84372434 78.94011571 15.125 82.8125 C17.09278746 85.0171109 19.25028211 86.86744776 21.47265625 88.8125 C23.125 90.8125 23.125 90.8125 23.1875 92.734375 C21.64898581 95.74352775 19.49096804 97.72625226 17.0625 100.0625 C15.68384766 101.40054688 15.68384766 101.40054688 14.27734375 102.765625 C13.56707031 103.44109375 12.85679687 104.1165625 12.125 104.8125 C8.67298361 103.33528578 6.47538064 101.37455999 3.875 98.6875 C3.16859375 97.96304688 2.4621875 97.23859375 1.734375 96.4921875 C1.20328125 95.93789062 0.6721875 95.38359375 0.125 94.8125 C-0.56722656 95.08964844 -1.25945312 95.36679688 -1.97265625 95.65234375 C-2.93042969 96.03519531 -3.88820313 96.41804688 -4.875 96.8125 C-5.90496094 97.22628906 -6.93492187 97.64007813 -7.99609375 98.06640625 C-9.09050781 98.49824219 -10.18492187 98.93007812 -11.3125 99.375 C-12.95025391 100.02662109 -12.95025391 100.02662109 -14.62109375 100.69140625 C-28.81857202 105.58297439 -44.59203317 103.17069739 -57.875 96.8125 C-71.43251461 89.33643377 -80.2211887 78.15060738 -84.75 63.5 C-89.12235774 48.16484516 -87.23655493 32.67210575 -79.5859375 18.62109375 C-71.62610622 5.55461273 -60.66905899 -3.03824806 -45.875 -7.1875 C-45.25866699 -7.36039551 -44.64233398 -7.53329102 -44.00732422 -7.71142578 C-28.85545703 -11.09431346 -13.17745003 -7.68077889 0 0 Z " transform="translate(309.875,98.1875)" style="fill: #F49604;"/><path d="M0 0 C18 0 18 0 23.25634766 3.21289062 C24.68925688 4.64858541 26.07519747 6.13247548 27.4140625 7.65625 C28.54115128 8.82154236 28.54115128 8.82154236 29.69100952 10.01037598 C32.04854168 12.46757169 34.33523567 14.97971275 36.625 17.5 C38.22485747 19.19028701 39.82899735 20.87653153 41.4375 22.55859375 C45.3423213 26.66036819 49.19112181 30.80908856 53 35 C57.79801158 31.07304871 62.02705278 26.9182142 66.140625 22.2890625 C67.90335209 20.38172373 69.67488273 18.48283844 71.44726562 16.58447266 C72.64469435 15.28293379 73.8253591 13.9657613 74.98828125 12.63330078 C76.70202418 10.67922765 78.47386289 8.79651473 80.265625 6.9140625 C80.75806702 6.32041901 81.25050903 5.72677551 81.75787354 5.11514282 C83.38378906 3.47509766 83.38378906 3.47509766 88 1 C94.27 1 100.54 1 107 1 C107 36.31 107 71.62 107 108 C101.06 108 95.12 108 89 108 C88.67 81.6 88.34 55.2 88 28 C76.78 39.22 65.56 50.44 54 62 C41.65056695 51.41477167 30.50120767 39.50120767 19 28 C18.67 54.4 18.34 80.8 18 108 C12.06 108 6.12 108 0 108 C0 72.36 0 36.72 0 0 Z " transform="translate(64,91)" style="fill: #EE1D0C;"/><path d="M0 0 C8.78501536 7.22323485 14.88370724 15.49584592 16.25390625 27.02734375 C16.5379748 36.05339283 14.82690702 43.28368596 10.8125 51.3125 C6.48745164 49.65386495 3.71831175 46.441459 0.5625 43.1875 C0.00820313 42.62417969 -0.54609375 42.06085938 -1.1171875 41.48046875 C-2.47854485 40.09563972 -3.83364859 38.70466796 -5.1875 37.3125 C-8.53570898 38.77875856 -10.88016359 40.64908447 -13.5 43.1875 C-14.21800781 43.86554688 -14.93601562 44.54359375 -15.67578125 45.2421875 C-17.43109126 47.15152413 -17.43109126 47.15152413 -16.95214844 49.25341797 C-16.10365354 51.53828579 -15.20619779 52.64176108 -13.46484375 54.328125 C-12.92666016 54.85664063 -12.38847656 55.38515625 -11.83398438 55.9296875 C-11.27001953 56.46851563 -10.70605469 57.00734375 -10.125 57.5625 C-9.55716797 58.11679688 -8.98933594 58.67109375 -8.40429688 59.2421875 C-7.00537531 60.60584214 -5.59730886 61.96010417 -4.1875 63.3125 C-9.42476024 68.85385922 -14.10437667 69.426478 -21.5 69.6875 C-32.28183796 69.48966811 -40.1644972 64.9869494 -47.875 57.72265625 C-55.76884569 49.33544521 -57.78588663 38.42299567 -57.51953125 27.26953125 C-56.62238223 16.57762582 -51.18531608 8.25051302 -43.1875 1.3125 C-29.27236461 -8.1636879 -14.62136173 -7.74072092 0 0 Z " transform="translate(299.1875,113.6875)" style="fill: #2C002F;"/><path d="M0 0 C0.66 0.33 1.32 0.66 2 1 C1.67 2.98 1.34 4.96 1 7 C1.66 7 2.32 7 3 7 C4.78305524 9.63892176 5.99059621 11.97178863 7 15 C8.32 14.67 9.64 14.34 11 14 C11.495 14.99 11.495 14.99 12 16 C11.50371094 16.268125 11.00742187 16.53625 10.49609375 16.8125 C1.81516628 21.82009384 -3.53954827 28.26589164 -7.1171875 37.66015625 C-10.06943602 48.82906104 -8.39017796 60.32368292 -2.6796875 70.30859375 C2.76336641 78.17573998 10.71202137 83.68454617 20 86 C27.11362084 86.77020956 33.46061873 86.40788168 40.09765625 83.65625 C42 83 42 83 46 83 C48.23515016 84.94562294 50.22932551 86.85363762 52.25 89 C52.80429687 89.57234375 53.35859375 90.1446875 53.9296875 90.734375 C55.29564122 92.14743057 56.64905611 93.57258758 58 95 C54.89407033 98.55288053 52.0298248 100.06007638 47.625 101.6875 C46.52414062 102.10386719 45.42328125 102.52023438 44.2890625 102.94921875 C29.8885435 107.54985962 14.43446468 105.43071532 1 99 C-12.55751461 91.52393377 -21.3461887 80.33810738 -25.875 65.6875 C-30.2493555 50.34533841 -28.34951678 34.87705053 -20.71875 20.8125 C-15.21141249 11.80049317 -8.80770041 5.79624402 0 0 Z " transform="translate(251,96)" style="fill: #F15004;"/><path d="M0 0 C5.94 0 11.88 0 18 0 C18 35.64 18 71.28 18 108 C12.06 108 6.12 108 0 108 C0 72.36 0 36.72 0 0 Z " transform="translate(64,91)" style="fill: #F3105C;"/><path d="M0 0 C5.94 0 11.88 0 18 0 C18 35.31 18 70.62 18 107 C12.39 107 6.78 107 1 107 C0.86801269 96.59266058 0.73734598 86.18530669 0.60884857 75.77792358 C0.54909845 70.94259636 0.48882453 66.10727697 0.42724609 61.27197266 C-0.09501517 20.20655873 -0.09501517 20.20655873 0 0 Z " transform="translate(153,92)" style="fill: #F53703;"/><path d="M0 0 C0 27.06 0 54.12 0 82 C-5.94 82 -11.88 82 -18 82 C-18.11298221 73.59412355 -18.20470363 65.18883774 -18.25906086 56.78240585 C-18.28515031 52.87890149 -18.3205346 48.97594369 -18.37719727 45.07275391 C-18.43154313 41.30556116 -18.46142545 37.53889392 -18.47438622 33.77133942 C-18.48362174 32.33436052 -18.50165727 30.89741025 -18.52865028 29.46065521 C-18.56496318 27.44768854 -18.56704255 25.43419253 -18.56762695 23.42089844 C-18.57873001 22.27506287 -18.58983307 21.12922729 -18.60127258 19.94866943 C-17.8125167 16.08057297 -16.18643605 15.17348221 -13 13 C-12.67 12.34 -12.34 11.68 -12 11 C-11.34 11 -10.68 11 -10 11 C-10 10.34 -10 9.68 -10 9 C-9.34 9 -8.68 9 -8 9 C-7.773125 8.443125 -7.54625 7.88625 -7.3125 7.3125 C-5.959128 4.92798742 -3.0264068 0 0 0 Z " transform="translate(207,117)" style="fill: #F33803;"/><path d="M0 0 C4.29597139 1.64990206 7.00517646 4.81742807 10.125 8.0625 C13.69553366 12.0044894 13.69553366 12.0044894 18 15 C18.66 13.02 19.32 11.04 20 9 C20.12375 9.598125 20.2475 10.19625 20.375 10.8125 C21.63731777 15.2306122 24.80208084 17.88007887 28 21 C28.53625 21.598125 29.0725 22.19625 29.625 22.8125 C31.07561063 24.32680994 31.07561063 24.32680994 34 24 C33.34 25.98 32.68 27.96 32 30 C32.66128906 30.60328125 33.32257813 31.2065625 34.00390625 31.828125 C35.27041016 33.02695313 35.27041016 33.02695313 36.5625 34.25 C37.40941406 35.03890625 38.25632812 35.8278125 39.12890625 36.640625 C41 39 41 39 41.09375 40.96875 C39.50449293 43.92022741 37.34727413 45.93173628 34.9375 48.25 C33.55884766 49.58804688 33.55884766 49.58804688 32.15234375 50.953125 C31.44207031 51.62859375 30.73179687 52.3040625 30 53 C26.80089557 51.585437 24.62133608 49.88709979 22.13354492 47.43994141 C21.38985153 46.71223541 20.64615814 45.98452942 19.87992859 45.23477173 C19.08810684 44.44831268 18.2962851 43.66185364 17.48046875 42.8515625 C16.25352043 41.63815689 16.25352043 41.63815689 15.00178528 40.40023804 C13.27686688 38.68981648 11.55473763 36.9765782 9.83520508 35.26074219 C7.19224193 32.6297205 4.53120774 30.01792245 1.86914062 27.40625 C0.1967709 25.74333899 -1.4744919 24.07931386 -3.14453125 22.4140625 C-4.3474456 21.24044662 -4.3474456 21.24044662 -5.57466125 20.04312134 C-6.30259384 19.30911102 -7.03052643 18.57510071 -7.78051758 17.81884766 C-8.4279744 17.17646149 -9.07543121 16.53407532 -9.74250793 15.8722229 C-11 14 -11 14 -10.84403992 11.92245483 C-9.51732926 8.90062938 -7.29862505 7.02146208 -4.9375 4.75 C-4.01839844 3.85796875 -3.09929687 2.9659375 -2.15234375 2.046875 C-1.44207031 1.37140625 -0.73179687 0.6959375 0 0 Z " transform="translate(292,150)" style="fill: #F17502;"/><path d="M0 0 C0.66 0.33 1.32 0.66 2 1 C1.67 2.98 1.34 4.96 1 7 C1.66 7 2.32 7 3 7 C4.78305524 9.63892176 5.99059621 11.97178863 7 15 C8.32 14.67 9.64 14.34 11 14 C11.495 14.99 11.495 14.99 12 16 C11.50371094 16.268125 11.00742187 16.53625 10.49609375 16.8125 C1.81516628 21.82009384 -3.53954827 28.26589164 -7.1171875 37.66015625 C-9.93238756 48.31058126 -8.06914902 57.99871807 -4 68 C-3.67 68.99 -3.34 69.98 -3 71 C-4.485 71.495 -4.485 71.495 -6 72 C-6.66 70.68 -7.32 69.36 -8 68 C-9.32 68 -10.64 68 -12 68 C-14.13496094 65.7068938 -15.00215582 63.99353253 -16 61 C-16.99 60.34 -17.98 59.68 -19 59 C-19 58.34 -19 57.68 -19 57 C-20.65 56.67 -22.3 56.34 -24 56 C-24 55.01 -24 54.02 -24 53 C-24.99 52.67 -25.98 52.34 -27 52 C-27.80375559 37.10819497 -24.74494792 26.08683878 -16 14 C-15.2575 12.948125 -14.515 11.89625 -13.75 10.8125 C-9.62392749 6.59265312 -4.84664055 3.34426686 0 0 Z " transform="translate(251,96)" style="fill: #F25E02;"/><path d="M0 0 C5.94 0 11.88 0 18 0 C18 19.8 18 39.6 18 60 C15 60 15 60 13.5 58.5625 C13.005 58.046875 12.51 57.53125 12 57 C11.01 56.67 10.02 56.34 9 56 C9 53.66666667 9 51.33333333 9 49 C7.824375 48.566875 7.824375 48.566875 6.625 48.125 C4 47 4 47 2 45 C1.67 45 1.34 45 1 45 C-0.0481183 35.23016673 -0.11902077 25.55901886 -0.0625 15.75 C-0.05747043 14.21484522 -0.05291012 12.67968884 -0.04882812 11.14453125 C-0.03880947 7.42961369 -0.01921514 3.71492614 0 0 Z M7 49 C7.33 49 7.66 49 8 49 C8 50.65 8 52.3 8 54 C7.67 54 7.34 54 7 54 C7 52.35 7 50.7 7 49 Z " transform="translate(64,91)" style="fill: #F51731;"/><path d="M0 0 C3 0 3 0 5 2 C4.67 2.33 4.34 2.66 4 3 C4.33 3.99 4.66 4.98 5 6 C5.33 5.34 5.66 4.68 6 4 C6.66 4 7.32 4 8 4 C9.2890625 5.42578125 9.2890625 5.42578125 10.625 7.3125 C11.07101563 7.92738281 11.51703125 8.54226562 11.9765625 9.17578125 C13 11 13 11 13 14 C14.32 14 15.64 14 17 14 C17 26.54 17 39.08 17 52 C11.39 52 5.78 52 0 52 C0 34.84 0 17.68 0 0 Z " transform="translate(154,147)" style="fill: #F51F0B;"/><path d="M0 0 C0.93457031 0.00322266 1.86914062 0.00644531 2.83203125 0.00976562 C3.80011719 0.01814453 4.76820313 0.02652344 5.765625 0.03515625 C6.74917969 0.03966797 7.73273438 0.04417969 8.74609375 0.04882812 C11.16933291 0.06059142 13.59244773 0.07702941 16.015625 0.09765625 C16.015625 0.42765625 16.015625 0.75765625 16.015625 1.09765625 C14.365625 1.42765625 12.715625 1.75765625 11.015625 2.09765625 C11.675625 3.74765625 12.335625 5.39765625 13.015625 7.09765625 C14.335625 7.09765625 15.655625 7.09765625 17.015625 7.09765625 C17.675625 8.08765625 18.335625 9.07765625 19.015625 10.09765625 C19.551875 10.61328125 20.088125 11.12890625 20.640625 11.66015625 C22.015625 13.09765625 22.015625 13.09765625 22.015625 15.09765625 C24.66409103 17.45980163 26.63078896 18.96937757 30.015625 20.09765625 C29.520625 21.58265625 29.520625 21.58265625 29.015625 23.09765625 C29.40495356 25.24021418 29.40495356 25.24021418 30.015625 27.09765625 C29.05140625 26.60394531 28.0871875 26.11023438 27.09375 25.6015625 C25.81781648 24.95421388 24.54176879 24.30709026 23.265625 23.66015625 C22.63140625 23.33466797 21.9971875 23.00917969 21.34375 22.67382812 C9.61551069 16.74862389 -2.64412429 18.92689739 -14.984375 22.09765625 C-15.396875 21.37578125 -15.809375 20.65390625 -16.234375 19.91015625 C-17.89110671 17.02412442 -17.89110671 17.02412442 -20.296875 14.72265625 C-21.984375 12.09765625 -21.984375 12.09765625 -21.921875 8.53515625 C-19.3224378 3.92325153 -16.62126977 3.3462894 -11.7109375 1.82421875 C-10.81117188 1.58445312 -9.91140625 1.3446875 -8.984375 1.09765625 C-8.37094238 0.91968506 -7.75750977 0.74171387 -7.12548828 0.55834961 C-4.69200846 0.03474911 -2.48865401 -0.01517472 0 0 Z M30.015625 22.09765625 C31.005625 22.59265625 31.005625 22.59265625 32.015625 23.09765625 C31.025625 23.59265625 31.025625 23.59265625 30.015625 24.09765625 C30.015625 23.43765625 30.015625 22.77765625 30.015625 22.09765625 Z " transform="translate(272.984375,89.90234375)" style="fill: #F38E03;"/><path d="M0 0 C0.66 0.33 1.32 0.66 2 1 C1.67 2.98 1.34 4.96 1 7 C1.66 7 2.32 7 3 7 C4.78305524 9.63892176 5.99059621 11.97178863 7 15 C8.32 14.67 9.64 14.34 11 14 C11.495 14.99 11.495 14.99 12 16 C11.50371094 16.268125 11.00742187 16.53625 10.49609375 16.8125 C2.39734303 21.48426512 -2.71724401 27.77710851 -7 36 C-7.66 36 -8.32 36 -9 36 C-9.33 36.66 -9.66 37.32 -10 38 C-10.99 34.535 -10.99 34.535 -12 31 C-12.99 31 -13.98 31 -15 31 C-16.02028865 29.68212715 -17.01971384 28.34789347 -18 27 C-18.99 26.67 -19.98 26.34 -21 26 C-19.68533694 17.12602433 -14.92147347 11.18458686 -8.02734375 5.5859375 C-5.38883649 3.65897607 -2.7289939 1.79591878 0 0 Z " transform="translate(251,96)" style="fill: #F27502;"/><path d="M0 0 C1.23788655 21.36924328 1.11949721 42.72762484 1.06866455 64.12359619 C1.05827433 68.97171587 1.05383394 73.81984106 1.04882812 78.66796875 C1.03823256 88.11199327 1.02125769 97.55599386 1 107 C0.67 107 0.34 107 0 107 C-0.33 80.6 -0.66 54.2 -1 27 C-5.29 31.29 -9.58 35.58 -14 40 C-14.66 39.34 -15.32 38.68 -16 38 C-15.67 37.01 -15.34 36.02 -15 35 C-15.2475 33.824375 -15.2475 33.824375 -15.5 32.625 C-16.05294173 29.7220559 -15.6747348 27.84888025 -15 25 C-14.87873219 21.79788698 -14.87873219 21.79788698 -16 18 C-21.94 23.94 -27.88 29.88 -34 36 C-34 33 -34 33 -32.75392151 31.38642883 C-32.17069626 30.80684921 -31.58747101 30.22726959 -30.98657227 29.63012695 C-30.32911514 28.96966873 -29.67165802 28.30921051 -28.99427795 27.6287384 C-28.27558029 26.92238754 -27.55688263 26.21603668 -26.81640625 25.48828125 C-25.72125954 24.39594429 -25.72125954 24.39594429 -24.60398865 23.28153992 C-23.05808634 21.74236651 -21.50858737 20.20679841 -19.95581055 18.67456055 C-17.56884916 16.31876626 -15.19273563 13.95245605 -12.81835938 11.58398438 C-11.31833016 10.09312408 -9.81769941 8.60286874 -8.31640625 7.11328125 C-7.59973282 6.4008577 -6.88305939 5.68843414 -6.14466858 4.954422 C-5.4840593 4.30342026 -4.82345001 3.65241852 -4.14282227 2.98168945 C-3.55880142 2.40449661 -2.97478058 1.82730377 -2.37306213 1.23262024 C-1 0 -1 0 0 0 Z M-37 36 C-36.34 36.33 -35.68 36.66 -35 37 C-36.485 37.99 -36.485 37.99 -38 39 C-37.67 38.01 -37.34 37.02 -37 36 Z " transform="translate(153,92)" style="fill: #C42008;"/><path d="M0 0 C0.33 0 0.66 0 1 0 C1.33 4.95 1.66 9.9 2 15 C2.99 14.67 3.98 14.34 5 14 C6.32 16.31 7.64 18.62 9 21 C9.66 21 10.32 21 11 21 C14.75170192 23.90290058 17.6167381 27.3960224 18.32275391 32.19287109 C18.61892141 37.51419347 18.27750785 42.64806295 18 48 C12.06 48 6.12 48 0 48 C0 32.16 0 16.32 0 0 Z " transform="translate(189,151)" style="fill: #F52A05;"/><path d="M0 0 C0.33 0 0.66 0 1 0 C1.00257812 0.66386719 1.00515625 1.32773438 1.0078125 2.01171875 C1.13021507 7.19284773 1.13021507 7.19284773 3.296875 11.7421875 C5.72806227 13.77620061 7.99769709 14.99923236 11 16 C11 16.99 11 17.98 11 19 C12.80132223 22.20212693 12.80132223 22.20212693 15 25 C15.66 25 16.32 25 17 25 C18.40912096 27.81824192 18.11183553 30.17251282 18.09765625 33.3203125 C18.09443359 34.57714844 18.09121094 35.83398438 18.08789062 37.12890625 C18.07951172 38.44761719 18.07113281 39.76632813 18.0625 41.125 C18.05748489 42.46484211 18.05292201 43.804686 18.04882812 45.14453125 C18.03701086 48.42973206 18.02053617 51.71484397 18 55 C14.23569087 53.74523029 13.94955892 52.30577382 12 49 C11.34 49 10.68 49 10 49 C8.74609375 47.5390625 8.74609375 47.5390625 7.4375 45.625 C7.00308594 44.99851563 6.56867188 44.37203125 6.12109375 43.7265625 C5 42 5 42 4 40 C3.01 40 2.02 40 1 40 C0.17852762 35.00010408 -0.1358223 30.16822982 -0.09765625 25.09765625 C-0.0962413 24.3750914 -0.09482635 23.65252655 -0.09336853 22.9080658 C-0.08782225 20.62616635 -0.0752802 18.34436921 -0.0625 16.0625 C-0.05747804 14.50455872 -0.05291636 12.94661588 -0.04882812 11.38867188 C-0.0378705 7.59240919 -0.02064372 3.79622187 0 0 Z M7 16 C7 17.65 7 19.3 7 21 C7.33 21 7.66 21 8 21 C8 19.35 8 17.7 8 16 C7.67 16 7.34 16 7 16 Z " transform="translate(64,124)" style="fill: #F41348;"/><path d="M0 0 C5.94 0 11.88 0 18 0 C18 11.55 18 23.1 18 35 C13.18265349 31.1461228 12.37280399 30.49121596 11 25 C10.34 25 9.68 25 9 25 C8.34 23.35 7.68 21.7 7 20 C7.66 19.67 8.32 19.34 9 19 C6.36 18.67 3.72 18.34 1 18 C0.67 12.06 0.34 6.12 0 0 Z " transform="translate(64,91)" style="fill: #EF191A;"/><path d="M0 0 C5.61 0 11.22 0 17 0 C17 10.89 17 21.78 17 33 C15.35 31.68 13.7 30.36 12 29 C11.01 28.67 10.02 28.34 9 28 C7.3125 24.4375 7.3125 24.4375 6 21 C5.34 21 4.68 21 4 21 C1.890625 19.546875 1.890625 19.546875 0 17 C-0.49178626 14.06418507 -0.37690784 11.21604961 -0.25 8.25 C-0.1675 5.5275 -0.085 2.805 0 0 Z " transform="translate(154,92)" style="fill: #F54804;"/><path d="M0 0 C5.94 0 11.88 0 18 0 C19.68480302 9.41507569 19.68480302 9.41507569 18 14 C13.41349878 20.47179176 7.18010854 26.05915779 1 31 C0.67 31 0.34 31 0 31 C0 20.77 0 10.54 0 0 Z " transform="translate(189,91)" style="fill: #F46302;"/><path d="M0 0 C4.07376031 1.61010527 6.76507069 4.53822271 9.75 7.625 C10.25660156 8.140625 10.76320313 8.65625 11.28515625 9.1875 C12.52803902 10.45383339 13.76465276 11.7263144 15 13 C11.74741054 16.8164806 8.57660861 18.18804024 3.875 19.8125 C2.63492187 20.25207031 1.39484375 20.69164062 0.1171875 21.14453125 C-3 22 -3 22 -5 21 C-5.625 18.4375 -5.625 18.4375 -6 16 C-6.99 16 -7.98 16 -9 16 C-9.33 14.68 -9.66 13.36 -10 12 C-10.66 12 -11.32 12 -12 12 C-14.25375317 9.74624683 -15 8.20799182 -15 5 C-14.16855469 4.80664062 -13.33710938 4.61328125 -12.48046875 4.4140625 C-11.39378906 4.15367187 -10.30710937 3.89328125 -9.1875 3.625 C-8.10855469 3.36976563 -7.02960938 3.11453125 -5.91796875 2.8515625 C-2.84466657 2.11267119 -2.84466657 2.11267119 0 0 Z " transform="translate(294,178)" style="fill: #D75403;"/><path d="M0 0 C1.66666667 1.66666667 3.33333333 3.33333333 5 5 C4.67 5.33 4.34 5.66 4 6 C4.99 6.33 5.98 6.66 7 7 C6.34 7 5.68 7 5 7 C6.31201173 8.56249809 6.31201173 8.56249809 8 10 C8.99 10 9.98 10 11 10 C12.625 12.4375 12.625 12.4375 14 15 C14.33 15.33 14.66 15.66 15 16 C15.08631874 17.34267413 15.10706473 18.68974322 15.09765625 20.03515625 C15.09443359 20.84404297 15.09121094 21.65292969 15.08789062 22.48632812 C15.07951172 23.33646484 15.07113281 24.18660156 15.0625 25.0625 C15.05798828 25.91650391 15.05347656 26.77050781 15.04882812 27.65039062 C15.03700373 29.76695663 15.01906769 31.88348685 15 34 C13.68 34 12.36 34 11 34 C7.125 27.375 7.125 27.375 6 24 C5.67 24.66 5.34 25.32 5 26 C4.34 26 3.68 26 3 26 C2.34 24.68 1.68 23.36 1 22 C0.34 22.66 -0.32 23.32 -1 24 C-1.84191782 21.0751367 -2.11819313 18.49258344 -2.09765625 15.453125 C-2.09443359 14.60878906 -2.09121094 13.76445312 -2.08789062 12.89453125 C-2.07951172 12.02183594 -2.07113281 11.14914063 -2.0625 10.25 C-2.05798828 9.36183594 -2.05347656 8.47367188 -2.04882812 7.55859375 C-2.037074 5.37232671 -2.02064249 3.18619821 -2 1 C-1.34 0.67 -0.68 0.34 0 0 Z " transform="translate(156,127)" style="fill: #F52A05;"/><path d="M0 0 C10.95376831 9.26667116 10.95376831 9.26667116 13 13 C12.375 16.4375 12.375 16.4375 11 19 C11.66 19.33 12.32 19.66 13 20 C12.34 20 11.68 20 11 20 C11.350625 20.7425 11.70125 21.485 12.0625 22.25 C13 25 13 25 12.5 26.9375 C11.76397597 29.17665424 11.76397597 29.17665424 13 32 C14.04449911 35.13349732 13.93423645 35.98968256 13 39 C6.86296591 34.83558401 0.86829696 30.46680601 -0.61572266 22.83251953 C-1.15743044 15.20694079 -0.7192373 7.60178503 0 0 Z " transform="translate(82,92)" style="fill: #96160D;"/><path d="M0 0 C0.33 0.66 0.66 1.32 1 2 C1.66 2.33 2.32 2.66 3 3 C2.34 3 1.68 3 1 3 C1.99 4.98 2.98 6.96 4 9 C5.32 9 6.64 9 8 9 C8.99 10.485 8.99 10.485 10 12 C10.99 12.33 11.98 12.66 13 13 C17.20630132 17.67366813 16.2137461 23.08635803 16 29 C10.39 29 4.78 29 -1 29 C-1.02689844 24.72912492 -1.04678984 20.45841818 -1.0625 16.1875 C-1.07087891 14.97255859 -1.07925781 13.75761719 -1.08789062 12.50585938 C-1.09111328 11.34248047 -1.09433594 10.17910156 -1.09765625 8.98046875 C-1.10289307 7.90692139 -1.10812988 6.83337402 -1.11352539 5.72729492 C-1 3 -1 3 0 0 Z " transform="translate(155,170)" style="fill: #F51A19;"/><path d="M0 0 C0 5.94 0 11.88 0 18 C-1.98 18.99 -1.98 18.99 -4 20 C-5.37535339 21.97133986 -6.70211044 23.97681922 -8 26 C-8.97446969 27.29051392 -9.97542956 28.56139138 -11 29.8125 C-11.7115625 30.68841797 -11.7115625 30.68841797 -12.4375 31.58203125 C-14.26569977 33.24112254 -15.62299414 33.48597858 -18 34 C-18.13517903 31.24835568 -18.23415251 28.50335479 -18.3125 25.75 C-18.35439453 24.97269531 -18.39628906 24.19539063 -18.43945312 23.39453125 C-18.48722822 21.15865684 -18.46686541 19.18874538 -18 17 C-15.54296875 14.578125 -15.54296875 14.578125 -13 13 C-12.67 12.34 -12.34 11.68 -12 11 C-11.34 11 -10.68 11 -10 11 C-10 10.34 -10 9.68 -10 9 C-9.34 9 -8.68 9 -8 9 C-7.773125 8.443125 -7.54625 7.88625 -7.3125 7.3125 C-5.959128 4.92798742 -3.0264068 0 0 0 Z " transform="translate(207,117)" style="fill: #CD3C02;"/><path d="M0 0 C3.27275026 0 5.846632 0.29925156 9 1 C9.12375 1.5775 9.2475 2.155 9.375 2.75 C9.58125 3.4925 9.7875 4.235 10 5 C10.185625 5.721875 10.37125 6.44375 10.5625 7.1875 C12.38388306 9.48402647 13.27966095 9.39370534 16.125 9.75 C17.40375 9.8325 18.6825 9.915 20 10 C22 16.11764706 22 16.11764706 22 19.125 C20.38584714 22.15153661 17.64840419 23.85169341 15 26 C13.00804421 24.11620471 11.0320636 22.2194668 9.0625 20.3125 C8.49853516 19.78205078 7.93457031 19.25160156 7.35351562 18.70507812 C4.12631096 15.55517178 2.51099554 13.63140399 2 9 C1.34 8.34 0.68 7.68 0 7 C-0.125 3.375 -0.125 3.375 0 0 Z " transform="translate(102,127)" style="fill: #EF1A16;"/><path d="M0 0 C1.23788655 21.36924328 1.11949721 42.72762484 1.06866455 64.12359619 C1.05827433 68.97171587 1.05383394 73.81984106 1.04882812 78.66796875 C1.03823256 88.11199327 1.02125769 97.55599386 1 107 C0.67 107 0.34 107 0 107 C-0.33 80.6 -0.66 54.2 -1 27 C-2.98 28.65 -4.96 30.3 -7 32 C-7.33 31.34 -7.66 30.68 -8 30 C-7.34 29.34 -6.68 28.68 -6 28 C-5.85403714 25.31720272 -5.81375411 22.74082982 -5.875 20.0625 C-5.88853516 18.96905273 -5.88853516 18.96905273 -5.90234375 17.85351562 C-5.92738313 15.90223288 -5.96314825 13.9510954 -6 12 C-6 11.01 -6 10.02 -6 9 C-6.33 8.01 -6.66 7.02 -7 6 C-6.02388578 4.99702025 -5.04402202 3.99768827 -4.0625 3 C-3.51722656 2.443125 -2.97195312 1.88625 -2.41015625 1.3125 C-1 0 -1 0 0 0 Z " transform="translate(153,92)" style="fill: #9C1B0F;"/><path d="M0 0 C3.21043882 1.38188453 5.04936365 2.92421903 7.25 5.625 C7.77078125 6.25664063 8.2915625 6.88828125 8.828125 7.5390625 C9.40820312 8.26222656 9.40820312 8.26222656 10 9 C9.34 9.66 8.68 10.32 8 11 C8.40929986 13.05396726 8.40929986 13.05396726 9 15 C8.67 15.33 8.34 15.66 8 16 C8.09050104 17.6290187 8.24727869 19.25459628 8.4375 20.875 C8.75432875 23.62619649 9 26.22703147 9 29 C9.66 29.66 10.32 30.32 11 31 C10.625 33.125 10.625 33.125 10 35 C3.77654474 29.97393162 1.00870669 25.64877635 -0.72265625 17.83203125 C-1.00533147 14.94555898 -0.65489086 12.80390309 0 10 C-0.165 9.360625 -0.33 8.72125 -0.5 8.0625 C-1.19301321 5.20382052 -0.58272958 2.84890017 0 0 Z " transform="translate(94,105)" style="fill: #D61B0B;"/><path d="M0 0 C0.33 0 0.66 0 1 0 C1.33 10.56 1.66 21.12 2 32 C3.65 32.66 5.3 33.32 7 34 C8.125 36.0625 8.125 36.0625 9 38 C9.99 38.33 10.98 38.66 12 39 C11.01 39.495 11.01 39.495 10 40 C11.88214887 42.35355339 11.88214887 42.35355339 15 42 C15.99 43.98 16.98 45.96 18 48 C12.06 48 6.12 48 0 48 C0 32.16 0 16.32 0 0 Z " transform="translate(189,151)" style="fill: #EC1F09;"/><path d="M0 0 C0.66 0.33 1.32 0.66 2 1 C2.37559975 7.13479598 2.04598127 11.58492219 -1 17 C-1.99 17.33 -2.98 17.66 -4 18 C-4.66 18.66 -5.32 19.32 -6 20 C-7.2684375 20.4640625 -7.2684375 20.4640625 -8.5625 20.9375 C-9.366875 21.288125 -10.17125 21.63875 -11 22 C-11.33 22.99 -11.66 23.98 -12 25 C-12.66 24.67 -13.32 24.34 -14 24 C-14.33 25.32 -14.66 26.64 -15 28 C-15.10815225 26.23050905 -15.18566083 24.45912513 -15.25 22.6875 C-15.31960937 21.20830078 -15.31960937 21.20830078 -15.390625 19.69921875 C-15 17 -15 17 -13.046875 15.265625 C-12.03367188 14.63914063 -12.03367188 14.63914063 -11 14 C-10.3162955 12.67532254 -9.65035814 11.34136367 -9 10 C-7.68945377 8.64426252 -6.35251497 7.31387169 -5 6 C-3.2958046 4.02876544 -1.6503402 2.01708246 0 0 Z " transform="translate(205,134)" style="fill: #E53C00;"/><path d="M0 0 C5.94 0 11.88 0 18 0 C18 0.33 18 0.66 18 1 C12.39 1 6.78 1 1 1 C1.80581099 8.69527111 1.80581099 8.69527111 6.5 14.4375 C7.1084375 14.86933594 7.716875 15.30117187 8.34375 15.74609375 C10 17 10 17 12 20 C10.19047409 21.83635578 8.37759362 23.66916208 6.5625 25.5 C6.04623047 26.02464844 5.52996094 26.54929687 4.99804688 27.08984375 C3.68423213 28.41224552 2.34406495 29.70835568 1 31 C0.67 31 0.34 31 0 31 C0 20.77 0 10.54 0 0 Z " transform="translate(189,91)" style="fill: #DC4C03;"/><path d="M0 0 C0.48915663 6.35903614 0.48915663 6.35903614 -1.8125 9.375 C-4 11 -4 11 -7 12 C-7.33 12.66 -7.66 13.32 -8 14 C-7.34 14.33 -6.68 14.66 -6 15 C-7.33333333 16.33333333 -8.66666667 17.66666667 -10 19 C-10.515625 19.556875 -11.03125 20.11375 -11.5625 20.6875 C-13 22 -13 22 -16 23 C-16.33 26.63 -16.66 30.26 -17 34 C-17.33 34 -17.66 34 -18 34 C-18.13517903 31.24835568 -18.23415251 28.50335479 -18.3125 25.75 C-18.35439453 24.97269531 -18.39628906 24.19539063 -18.43945312 23.39453125 C-18.48722822 21.15865684 -18.46686541 19.18874538 -18 17 C-15.54296875 14.578125 -15.54296875 14.578125 -13 13 C-12.67 12.34 -12.34 11.68 -12 11 C-11.34 11 -10.68 11 -10 11 C-10 10.34 -10 9.68 -10 9 C-9.34 9 -8.68 9 -8 9 C-7.773125 8.443125 -7.54625 7.88625 -7.3125 7.3125 C-5.959128 4.92798742 -3.0264068 0 0 0 Z " transform="translate(207,117)" style="fill: #AD3104;"/><path d="M0 0 C3.16115776 1.36983503 3.9927092 1.9890638 6 5 C5.125 8.1875 5.125 8.1875 4 11 C4.66 11.33 5.32 11.66 6 12 C5.34 12 4.68 12 4 12 C4.350625 12.7425 4.70125 13.485 5.0625 14.25 C6 17 6 17 5.5 18.9375 C4.76397597 21.17665424 4.76397597 21.17665424 6 24 C7.04449911 27.13349732 6.93423645 27.98968256 6 31 C2.36584868 28.31969417 0.29728015 26.70452344 -0.49511719 22.16113281 C-0.5900753 18.79879893 -0.52291558 15.48533853 -0.375 12.125 C-0.34792969 10.9596875 -0.32085937 9.794375 -0.29296875 8.59375 C-0.22248125 5.72725828 -0.12399461 2.86459345 0 0 Z " transform="translate(89,100)" style="fill: #B21510;"/><path d="M0 0 C1.47690184 2.34566762 2.10713193 3.4662035 1.55078125 6.23828125 C0.71250622 10.44154682 1.08836275 14.57760335 1.2578125 18.84375 C0.97092918 22.35589737 0.02391342 24.16016336 -2 27 C-2.99 26.67 -3.98 26.34 -5 26 C-5 25.01 -5 24.02 -5 23 C-4.34 23 -3.68 23 -3 23 C-3.350625 22.175 -3.70125 21.35 -4.0625 20.5 C-5.23040641 16.13981606 -4.72693568 13.43430764 -4 9 C-3.64644661 5.88214887 -3.64644661 5.88214887 -6 4 C-2.25 0 -2.25 0 0 0 Z " transform="translate(147,99)" style="fill: #AC2905;"/><path d="M0 0 C1.0625 1.8125 1.0625 1.8125 2 4 C1.67 4.99 1.34 5.98 1 7 C1.144375 7.70125 1.28875 8.4025 1.4375 9.125 C2.44193025 14.25875462 2.84969602 19.09829939 0.6875 23.9375 C-1 26 -1 26 -4 28 C-4.33 27.34 -4.66 26.68 -5 26 C-4.67 25.236875 -4.34 24.47375 -4 23.6875 C-2.8046877 20.47509819 -3.25007463 19.29967165 -4 16 C-4.56536814 4.75321232 -4.56536814 4.75321232 -1.4375 1.25 C-0.963125 0.8375 -0.48875 0.425 0 0 Z " transform="translate(137,109)" style="fill: #D91F08;"/><path d="M0 0 C4.07376031 1.61010527 6.76507069 4.53822271 9.75 7.625 C10.25660156 8.140625 10.76320313 8.65625 11.28515625 9.1875 C12.52803902 10.45383339 13.76465276 11.7263144 15 13 C13.68 14.32 12.36 15.64 11 17 C10.566875 16.54625 10.13375 16.0925 9.6875 15.625 C7.89201658 13.79975666 7.89201658 13.79975666 5 12 C3.33333333 10 1.66666667 8 0 6 C-0.99 5.34 -1.98 4.68 -3 4 C-3 3.34 -3 2.68 -3 2 C-2.01 1.34 -1.02 0.68 0 0 Z " transform="translate(294,178)" style="fill: #91380D;"/><path d="M0 0 C3.27317216 1.44404654 5.5049025 3.49604551 8.125 5.9375 C8.125 6.5975 8.125 7.2575 8.125 7.9375 C8.74375 8.185 9.3625 8.4325 10 8.6875 C12.47568687 10.14378639 13.07625002 11.31562506 14.125 13.9375 C12.145 14.5975 10.165 15.2575 8.125 15.9375 C8.021875 15.298125 7.91875 14.65875 7.8125 14 C7.585625 13.319375 7.35875 12.63875 7.125 11.9375 C6.135 11.6075 5.145 11.2775 4.125 10.9375 C3.09232938 9.97127467 2.09509441 8.96653685 1.125 7.9375 C-0.09465713 6.86409726 -1.32397574 5.8015772 -2.5625 4.75 C-3.18511719 4.22019531 -3.80773437 3.69039062 -4.44921875 3.14453125 C-4.91972656 2.74621094 -5.39023437 2.34789062 -5.875 1.9375 C-2.109375 -0.0703125 -2.109375 -0.0703125 0 0 Z " transform="translate(289.875,181.0625)" style="fill: #B54B08;"/><path d="M0 0 C3.16115776 1.36983503 3.9927092 1.9890638 6 5 C5.34 5 4.68 5 4 5 C4 10.28 4 15.56 4 21 C3.01 21.33 2.02 21.66 1 22 C-0.50901904 17.47294289 -1.12340487 14.61844224 0 10 C-0.165 9.360625 -0.33 8.72125 -0.5 8.0625 C-1.19301321 5.20382052 -0.58272958 2.84890017 0 0 Z " transform="translate(94,105)" style="fill: #C61D09;"/><path d="M0 0 C2.03553431 3.05330147 2.24129596 3.58865171 2.125 7 C2.10695312 7.680625 2.08890625 8.36125 2.0703125 9.0625 C2.03550781 10.0215625 2.03550781 10.0215625 2 11 C2 13.12591892 2.06957524 15.25235425 2.1875 17.375 C1.98750298 21.24160905 1.43441659 23.02460195 -1 26 C-1.99 26 -2.98 26 -4 26 C-3.67257813 25.49597656 -3.34515625 24.99195312 -3.0078125 24.47265625 C-1.61452415 21.05423948 -1.81029195 18.11507441 -1.875 14.4375 C-1.88853516 13.42913086 -1.88853516 13.42913086 -1.90234375 12.40039062 C-1.92737206 10.60014009 -1.96313897 8.80004713 -2 7 C-2 3.89448334 -1.4606285 2.64738916 0 0 Z " transform="translate(149,97)" style="fill: #96190C;"/><path d="M0 0 C1.485 0.99 1.485 0.99 3 2 C3.34057617 4.61376953 3.34057617 4.61376953 3.29296875 7.8828125 C3.28330078 9.04941406 3.27363281 10.21601562 3.26367188 11.41796875 C3.23853516 12.64128906 3.21339844 13.86460938 3.1875 15.125 C3.17396484 16.35605469 3.16042969 17.58710937 3.14648438 18.85546875 C3.11103543 21.90407843 3.06162079 24.951825 3 28 C2.01 27.34 1.02 26.68 0 26 C-0.34057617 23.38623047 -0.34057617 23.38623047 -0.29296875 20.1171875 C-0.2784668 18.36728516 -0.2784668 18.36728516 -0.26367188 16.58203125 C-0.23853516 15.35871094 -0.21339844 14.13539062 -0.1875 12.875 C-0.17396484 11.64394531 -0.16042969 10.41289063 -0.14648438 9.14453125 C-0.11103543 6.09592157 -0.06162079 3.048175 0 0 Z " transform="translate(82,92)" style="fill: #7C1D15;"/><path d="M0 0 C0.33 0 0.66 0 1 0 C1 10.23 1 20.46 1 31 C1.99 31.33 2.98 31.66 4 32 C3.34 32.99 2.68 33.98 2 35 C2.33 35.598125 2.66 36.19625 3 36.8125 C4 39 4 39 4 42 C2.68 42 1.36 42 0 42 C0 28.14 0 14.28 0 0 Z " transform="translate(64,157)" style="fill: #EA1664;"/><path d="M0 0 C0.33 0 0.66 0 1 0 C1.33 5.61 1.66 11.22 2 17 C2.99 17 3.98 17 5 17 C6.75 18.8125 6.75 18.8125 8 21 C7.67 21.99 7.34 22.98 7 24 C6.38125 23.67 5.7625 23.34 5.125 23 C3.08981656 21.85806765 3.08981656 21.85806765 1 22 C0.67 22.66 0.34 23.32 0 24 C0 16.08 0 8.16 0 0 Z " transform="translate(153,92)" style="fill: #E13B03;"/><path d="M0 0 C1.485 0.99 1.485 0.99 3 2 C3.36328125 4.3125 3.36328125 4.3125 3.3125 7 C3.30863281 7.886875 3.30476563 8.77375 3.30078125 9.6875 C3 12 3 12 1 14 C0 13 0 13 -0.09765625 10.05859375 C-0.08605469 8.86363281 -0.07445313 7.66867188 -0.0625 6.4375 C-0.05347656 5.23996094 -0.04445313 4.04242188 -0.03515625 2.80859375 C-0.02355469 1.88175781 -0.01195313 0.95492187 0 0 Z " transform="translate(82,92)" style="fill: #81220E;"/><path d="M0 0 C1.32 0 2.64 0 4 0 C4 2.97 4 5.94 4 9 C1.43135272 7.71567636 1.053461 6.63365249 0 4 C0 2.68 0 1.36 0 0 Z " transform="translate(78,92)" style="fill: #F51D0E;"/></svg>